<svg xmlns="http://www.w3.org/2000/svg" viewBox="0 0 64 64" width="64" height="64">
  <rect width="64" height="64" rx="14" fill="#721035"/>
  <rect x="20.5" y="8" width="5" height="12" rx="2.5" fill="#e6ded4"/>
  <rect x="38.5" y="8" width="5" height="12" rx="2.5" fill="#e6ded4"/>
  <rect x="10" y="14" width="44" height="40" rx="6" fill="#e6ded4"/>
  <path d="M16 14 h32 a6 6 0 0 1 6 6 v5 h-44 v-5 a6 6 0 0 1 6 -6 z" fill="#0b121f"/>
  <rect x="15" y="30" width="10" height="8" rx="2" fill="#a6280c"/>
  <rect x="27" y="30" width="10" height="8" rx="2" fill="#c14b21"/>
  <rect x="39" y="30" width="10" height="8" rx="2" fill="#a6280c"/>
  <rect x="15" y="41" width="10" height="8" rx="2" fill="#c14b21"/>
  <rect x="27" y="41" width="10" height="8" rx="2" fill="#a6280c"/>
  <rect x="39" y="41" width="10" height="8" rx="2" fill="#c14b21"/>
</svg>